<?xml version="1.0" encoding="UTF-8"?>
<svg id="a" data-name="Layer 1" xmlns="http://www.w3.org/2000/svg" width="9.1795mm" height="9.1794mm" viewBox="0 0 26.0205 26.0204">
  <path d="M26.0205,11.1516c0-1.1152-.3717-2.2303-.7434-3.1596l-6.8768,1.8586,5.0182-5.0182c-.7434-.9293-1.4869-1.6727-2.2303-2.2303l-5.0182,5.0182,1.8586-6.8768c-.9293-.3717-2.0445-.7434-3.1596-.7434l-1.8586,6.8768-1.8586-6.8768c-1.1152,0-2.2303.3717-3.1596.7434l1.8586,6.8768L4.8324,2.602c-.9293.7434-1.6727,1.4869-2.2303,2.2303l5.0182,5.0182L.7434,7.992c-.3717.9293-.7434,2.0445-.7434,3.1596l6.8768,1.8586-6.8768,1.8586c0,1.1152.3717,2.2303.7434,3.1596l6.8768-1.8586-5.0182,5.0182c.7434.9293,1.4869,1.6727,2.2303,2.2303l5.0182-5.0182-1.8586,6.8768c.9293.3717,2.0445.7434,3.1596.7434l1.8586-6.8768,1.8586,6.8768c1.1152,0,2.2303-.3717,3.1596-.7434l-1.8586-6.8768,5.0182,5.0182c.9293-.7434,1.6727-1.4869,2.2303-2.2303l-5.0182-5.0182,6.8768,1.8586c.3717-.9293.7434-2.0445.7434-3.1596l-6.8768-1.8586,6.8768-1.8586ZM12.8244,15.984c-1.6727,0-2.9738-1.301-2.9738-2.9738s1.301-2.9738,2.9738-2.9738,2.9738,1.301,2.9738,2.9738-1.301,2.9738-2.9738,2.9738Z" fill="#231f20"/>
</svg>